<?xml version="1.0" encoding="UTF-8" standalone="no"?>
<!-- Created with Inkscape (http://www.inkscape.org/) -->

<svg
   width="1920"
   height="1080"
   viewBox="0 0 1920 1080"
   version="1.1"
   id="svg1"
   inkscape:version="1.4.2 (ebf0e940d0, 2025-05-08)"
   sodipodi:docname="material.svg"
   inkscape:export-filename="material.png"
   inkscape:export-xdpi="96"
   inkscape:export-ydpi="96"
   xmlns:inkscape="http://www.inkscape.org/namespaces/inkscape"
   xmlns:sodipodi="http://sodipodi.sourceforge.net/DTD/sodipodi-0.dtd"
   xmlns="http://www.w3.org/2000/svg"
   xmlns:svg="http://www.w3.org/2000/svg">
  <sodipodi:namedview
     id="namedview1"
     pagecolor="#ffffff"
     bordercolor="#999999"
     borderopacity="1"
     inkscape:showpageshadow="2"
     inkscape:pageopacity="0"
     inkscape:pagecheckerboard="0"
     inkscape:deskcolor="#d1d1d1"
     inkscape:document-units="px"
     inkscape:zoom="0.1985055"
     inkscape:cx="750.60893"
     inkscape:cy="375.30446"
     inkscape:window-width="1272"
     inkscape:window-height="960"
     inkscape:window-x="36"
     inkscape:window-y="36"
     inkscape:window-maximized="1"
     inkscape:current-layer="layer1" />
  <defs
     id="defs1">
    <inkscape:path-effect
       effect="bspline"
       id="path-effect8"
       is_visible="true"
       lpeversion="1.3"
       weight="33.333333"
       steps="2"
       helper_size="0"
       apply_no_weight="true"
       apply_with_weight="true"
       only_selected="false"
       uniform="false" />
    <inkscape:path-effect
       effect="bspline"
       id="path-effect7"
       is_visible="true"
       lpeversion="1.3"
       weight="33.333333"
       steps="2"
       helper_size="0"
       apply_no_weight="true"
       apply_with_weight="true"
       only_selected="false"
       uniform="false" />
  </defs>
  <g
     inkscape:label="Layer 1"
     inkscape:groupmode="layer"
     id="layer1">
    <rect
       style="fill:#6094e3;fill-opacity:1"
       id="rect1"
       width="1920"
       height="1080"
       x="0"
       y="0" />
    <path
       style="fill:#50d5ee;fill-opacity:1"
       d="m 366.15955,-503.45083 c 14.39703,-61.15028 23.59926,-42.44898 36.06695,-40.22278 12.46769,2.2262 28.20021,-12.02212 38.29302,-8.45975 10.09281,3.56236 14.54541,24.93485 24.93519,30.42639 10.38977,5.49155 26.71597,-4.89785 34.28553,1.48457 7.56956,6.38242 6.3822,29.53595 15.58463,39.18341 9.20242,9.64745 28.79386,5.78853 34.137,16.02996 5.34314,10.24143 -3.56206,34.58232 1.48451,47.04986 5.04657,12.46754 24.04434,13.06122 25.23156,25.08371 1.18721,12.0225 -15.43583,35.47287 -15.13881,50.90893 0.29702,15.43607 17.51374,22.85707 -21.07718,51.80006 -38.59093,28.94299 -132.98607,79.40581 -170.38847,34.13538 -37.4024,-45.27043 -17.81096,-186.26946 -3.41393,-247.41974 z"
       id="path8"
       inkscape:path-effect="#path-effect8"
       inkscape:original-d="m 371.35436,-583.30241 c 9.20222,18.7013 18.40445,37.4026 27.60667,56.1039 15.73316,-14.24889 31.46568,-28.49722 47.19852,-42.74583 4.45278,21.37334 8.90538,42.74583 13.35807,64.11874 16.32686,-10.38982 32.65306,-20.77922 48.97959,-31.16883 -1.18741,23.15445 -2.37477,46.30798 -3.56215,69.46197 19.59223,-3.85908 39.18367,-7.718 58.77551,-11.577 -8.90556,24.34186 -17.81076,48.68275 -26.71614,73.02412 18.99852,0.59371 37.99629,1.18739 56.99443,1.78108 -16.62371,23.4513 -33.24675,46.90167 -49.87013,70.3525 17.21742,7.4213 34.43414,14.8423 51.65121,22.26345 -94.39892,50.46483 -188.79406,100.92764 -283.19109,151.39147 19.59222,-141.00468 39.18367,-282.00371 58.77551,-423.00557 z"
       transform="matrix(-0.07383919,4.7736146,-4.5043768,-0.06967457,-1533.8084,-1880.7424)" />
    <ellipse
       style="fill:#8bb5f4;fill-opacity:1;stroke-width:1.72425"
       id="path1"
       cx="534.32281"
       cy="990.94617"
       rx="445.56586"
       ry="653.95178" />
    <path
       style="fill:#0f509a;fill-opacity:1"
       d="m 1357.1799,1107.8293 c 106.8646,110.4267 292.0965,92.616 292.0965,92.616 l 431.0204,14.2486 49.8702,-787.23565 c 0,0 71.243,-124.67532 -188.7941,-185.23191 -260.0371,-60.55658 -431.0204,-96.1781 -502.2635,277.84787 -71.243,374.02596 -256.4749,320.59368 -341.9666,317.03153 -85.4916,-3.56215 -24.935,295.65866 -24.935,295.65866 z"
       id="path5" />
  </g>
</svg>
