<?xml version="1.0" encoding="UTF-8" standalone="no"?>
<!-- Created with Inkscape (http://www.inkscape.org/) -->

<svg
   width="1920"
   height="1080"
   viewBox="0 0 1920 1080"
   version="1.1"
   id="svg1"
   inkscape:version="1.4.2 (ebf0e940d0, 2025-05-08)"
   sodipodi:docname="material.svg"
   inkscape:export-filename="material.png"
   inkscape:export-xdpi="96"
   inkscape:export-ydpi="96"
   xmlns:inkscape="http://www.inkscape.org/namespaces/inkscape"
   xmlns:sodipodi="http://sodipodi.sourceforge.net/DTD/sodipodi-0.dtd"
   xmlns="http://www.w3.org/2000/svg"
   xmlns:svg="http://www.w3.org/2000/svg">
  <sodipodi:namedview
     id="namedview1"
     pagecolor="#ffffff"
     bordercolor="#999999"
     borderopacity="1"
     inkscape:showpageshadow="2"
     inkscape:pageopacity="0"
     inkscape:pagecheckerboard="0"
     inkscape:deskcolor="#d1d1d1"
     inkscape:document-units="px"
     inkscape:zoom="0.28072917"
     inkscape:cx="1093.5807"
     inkscape:cy="762.30056"
     inkscape:window-width="1249"
     inkscape:window-height="1008"
     inkscape:window-x="84"
     inkscape:window-y="36"
     inkscape:window-maximized="1"
     inkscape:current-layer="layer1" />
  <defs
     id="defs1" />
  <g
     inkscape:label="Layer 1"
     inkscape:groupmode="layer"
     id="layer1">
    <rect
       style="fill:#eae2f9;fill-rule:evenodd;fill-opacity:1"
       id="rect1"
       width="1920"
       height="1080"
       x="-3.5621521"
       y="-3.5621521" />
    <path
       style="fill:#c1c3f6;fill-opacity:1;stroke:#000000;stroke-width:0;stroke-dasharray:none"
       d="m 1132.7644,-170.9833 c -224.41561,210.166973 -324.15587,302.78293 -39.1837,502.26345 284.9722,199.48052 -416.77179,110.42671 -35.6215,338.40445 381.1503,227.97774 466.6419,124.67533 473.7662,106.86457 7.1243,-17.81077 256.475,-99.74026 245.7885,-359.77737 -10.6864,-260.03711 -651.8738,-616.25232 -651.8738,-616.25232 z"
       id="path3" />
    <path
       style="fill:#eae2f9;fill-opacity:1;stroke:#000000;stroke-width:1.077"
       d="M 1916.4378,313.46939 Z"
       id="path1" />
    <path
       style="fill:#c1a9f2;fill-opacity:1;stroke:#000000;stroke-width:0;stroke-dasharray:none"
       d="m 1916.4378,459.51763 c 0,0 -252.9128,-181.66976 -341.9666,170.9833 -89.0538,352.65306 -420.3339,-181.66976 -427.4582,317.03154 -7.1243,498.70133 769.4248,153.17253 769.4248,153.17253 0,0 245.7885,331.2802 188.7941,-135.36177 -56.9944,-466.64193 -188.7941,-505.8256 -188.7941,-505.8256 z"
       id="path2" />
    <path
       style="fill:#c1a0f1;fill-opacity:1;stroke:#000000;stroke-width:0;stroke-dasharray:none"
       d="M 235.10204,1196.8831 C 423.8961,1043.7106 769.42486,730.24119 359.77737,733.80334 -49.87013,737.36549 502.26345,505.8256 395.39889,370.46382 288.53432,235.10204 -67.680891,178.10761 -67.680891,178.10761 l 3.562153,1054.39699 z"
       id="path4" />
  </g>
</svg>
